<?xml version="1.0" encoding="UTF-8"?>
<svg width="300" height="300" viewBox="0 0 300 300" version="1.1" xmlns="http://www.w3.org/2000/svg">
  <circle cx="150" cy="150" r="150" fill="#841617"/>
  <path d="M75 100C75 77.909 92.909 60 115 60H185C207.091 60 225 77.909 225 100V200C225 222.091 207.091 240 185 240H115C92.909 240 75 222.091 75 200V100Z" fill="white"/>
  <path d="M115 90C115 79.507 123.507 71 134 71H166C176.493 71 185 79.507 185 90V210C185 220.493 176.493 229 166 229H134C123.507 229 115 220.493 115 210V90Z" fill="#841617"/>
</svg> 